<mxfile host="app.diagrams.net" agent="Mozilla/5.0 (Windows NT 10.0; Win64; x64) AppleWebKit/537.36 (KHTML, like Gecko) Chrome/127.0.0.0 Safari/537.36" version="24.7.6">
  <diagram name="Page-1" id="LnVhKmD3Zmvg_1_i1MBm">
    <mxGraphModel dx="3653" dy="2645" grid="1" gridSize="10" guides="1" tooltips="1" connect="1" arrows="1" fold="1" page="1" pageScale="1" pageWidth="850" pageHeight="1100" math="0" shadow="0">
      <root>
        <mxCell id="0" />
        <mxCell id="1" parent="0" />
        <mxCell id="3ulj8nUWsZ0XGV1Wzu6U-1" value="" style="outlineConnect=0;dashed=0;verticalLabelPosition=bottom;verticalAlign=top;align=center;html=1;shape=mxgraph.aws3.management_console;fillColor=#D2D3D3;gradientColor=none;" vertex="1" parent="1">
          <mxGeometry x="150" y="-260" width="63" height="63" as="geometry" />
        </mxCell>
        <mxCell id="3ulj8nUWsZ0XGV1Wzu6U-2" value="" style="outlineConnect=0;dashed=0;verticalLabelPosition=bottom;verticalAlign=top;align=center;html=1;shape=mxgraph.aws3.mobile_client;fillColor=#D2D3D3;gradientColor=none;" vertex="1" parent="1">
          <mxGeometry x="379.5" y="-270" width="40.5" height="63" as="geometry" />
        </mxCell>
        <mxCell id="3ulj8nUWsZ0XGV1Wzu6U-3" value="" style="outlineConnect=0;dashed=0;verticalLabelPosition=bottom;verticalAlign=top;align=center;html=1;shape=mxgraph.aws3.management_console;fillColor=#D2D3D3;gradientColor=none;" vertex="1" parent="1">
          <mxGeometry x="610" y="-270" width="63" height="63" as="geometry" />
        </mxCell>
        <mxCell id="3ulj8nUWsZ0XGV1Wzu6U-17" style="edgeStyle=orthogonalEdgeStyle;rounded=0;orthogonalLoop=1;jettySize=auto;html=1;entryX=0;entryY=0.5;entryDx=0;entryDy=0;" edge="1" parent="1" source="3ulj8nUWsZ0XGV1Wzu6U-4" target="3ulj8nUWsZ0XGV1Wzu6U-5">
          <mxGeometry relative="1" as="geometry">
            <mxPoint x="400" y="490" as="targetPoint" />
          </mxGeometry>
        </mxCell>
        <mxCell id="3ulj8nUWsZ0XGV1Wzu6U-19" style="edgeStyle=orthogonalEdgeStyle;rounded=0;orthogonalLoop=1;jettySize=auto;html=1;exitX=0.5;exitY=1;exitDx=0;exitDy=0;entryX=0.25;entryY=0;entryDx=0;entryDy=0;entryPerimeter=0;" edge="1" parent="1" source="3ulj8nUWsZ0XGV1Wzu6U-4" target="3ulj8nUWsZ0XGV1Wzu6U-18">
          <mxGeometry relative="1" as="geometry" />
        </mxCell>
        <mxCell id="3ulj8nUWsZ0XGV1Wzu6U-4" value="" style="image;html=1;image=img/lib/clip_art/computers/Server_Rack_Empty_128x128.png" vertex="1" parent="1">
          <mxGeometry x="100" y="440" width="80" height="80" as="geometry" />
        </mxCell>
        <mxCell id="3ulj8nUWsZ0XGV1Wzu6U-5" value="" style="image;html=1;image=img/lib/clip_art/computers/Server_Rack_Empty_128x128.png" vertex="1" parent="1">
          <mxGeometry x="339" y="420" width="80" height="80" as="geometry" />
        </mxCell>
        <mxCell id="3ulj8nUWsZ0XGV1Wzu6U-6" value="" style="image;html=1;image=img/lib/clip_art/computers/Server_Rack_Empty_128x128.png" vertex="1" parent="1">
          <mxGeometry x="570" y="490" width="80" height="80" as="geometry" />
        </mxCell>
        <mxCell id="3ulj8nUWsZ0XGV1Wzu6U-8" value="" style="aspect=fixed;sketch=0;html=1;dashed=0;whitespace=wrap;verticalLabelPosition=bottom;verticalAlign=top;fillColor=#2875E2;strokeColor=#ffffff;points=[[0.005,0.63,0],[0.1,0.2,0],[0.9,0.2,0],[0.5,0,0],[0.995,0.63,0],[0.72,0.99,0],[0.5,1,0],[0.28,0.99,0]];shape=mxgraph.kubernetes.icon2;kubernetesLabel=1;prIcon=api" vertex="1" parent="1">
          <mxGeometry x="365.5" y="80" width="50" height="48" as="geometry" />
        </mxCell>
        <mxCell id="3ulj8nUWsZ0XGV1Wzu6U-10" style="edgeStyle=orthogonalEdgeStyle;rounded=0;orthogonalLoop=1;jettySize=auto;html=1;exitX=0.5;exitY=1;exitDx=0;exitDy=0;exitPerimeter=0;entryX=0.5;entryY=0;entryDx=0;entryDy=0;entryPerimeter=0;" edge="1" parent="1" source="3ulj8nUWsZ0XGV1Wzu6U-2" target="3ulj8nUWsZ0XGV1Wzu6U-8">
          <mxGeometry relative="1" as="geometry" />
        </mxCell>
        <mxCell id="3ulj8nUWsZ0XGV1Wzu6U-11" style="edgeStyle=orthogonalEdgeStyle;rounded=0;orthogonalLoop=1;jettySize=auto;html=1;exitX=0.25;exitY=1;exitDx=0;exitDy=0;exitPerimeter=0;entryX=1;entryY=0.5;entryDx=0;entryDy=0;entryPerimeter=0;" edge="1" parent="1" source="3ulj8nUWsZ0XGV1Wzu6U-3" target="3ulj8nUWsZ0XGV1Wzu6U-26">
          <mxGeometry relative="1" as="geometry" />
        </mxCell>
        <mxCell id="3ulj8nUWsZ0XGV1Wzu6U-13" style="edgeStyle=orthogonalEdgeStyle;rounded=0;orthogonalLoop=1;jettySize=auto;html=1;exitX=0.145;exitY=0.855;exitDx=0;exitDy=0;exitPerimeter=0;" edge="1" parent="1" source="3ulj8nUWsZ0XGV1Wzu6U-12" target="3ulj8nUWsZ0XGV1Wzu6U-4">
          <mxGeometry relative="1" as="geometry" />
        </mxCell>
        <mxCell id="3ulj8nUWsZ0XGV1Wzu6U-14" style="edgeStyle=orthogonalEdgeStyle;rounded=0;orthogonalLoop=1;jettySize=auto;html=1;exitX=0.5;exitY=1;exitDx=0;exitDy=0;exitPerimeter=0;entryX=0.5;entryY=0;entryDx=0;entryDy=0;" edge="1" parent="1" source="3ulj8nUWsZ0XGV1Wzu6U-12" target="3ulj8nUWsZ0XGV1Wzu6U-5">
          <mxGeometry relative="1" as="geometry" />
        </mxCell>
        <mxCell id="3ulj8nUWsZ0XGV1Wzu6U-15" style="edgeStyle=orthogonalEdgeStyle;rounded=0;orthogonalLoop=1;jettySize=auto;html=1;exitX=0.855;exitY=0.855;exitDx=0;exitDy=0;exitPerimeter=0;entryX=0.5;entryY=0;entryDx=0;entryDy=0;" edge="1" parent="1" source="3ulj8nUWsZ0XGV1Wzu6U-12" target="3ulj8nUWsZ0XGV1Wzu6U-6">
          <mxGeometry relative="1" as="geometry" />
        </mxCell>
        <mxCell id="3ulj8nUWsZ0XGV1Wzu6U-12" value="" style="outlineConnect=0;dashed=0;verticalLabelPosition=bottom;verticalAlign=top;align=center;html=1;shape=mxgraph.aws3.classic_load_balancer;fillColor=#F58534;gradientColor=none;" vertex="1" parent="1">
          <mxGeometry x="356" y="230" width="69" height="72" as="geometry" />
        </mxCell>
        <mxCell id="3ulj8nUWsZ0XGV1Wzu6U-16" value="" style="shape=datastore;whiteSpace=wrap;html=1;" vertex="1" parent="1">
          <mxGeometry x="350" y="860" width="60" height="60" as="geometry" />
        </mxCell>
        <mxCell id="3ulj8nUWsZ0XGV1Wzu6U-35" style="edgeStyle=orthogonalEdgeStyle;rounded=0;orthogonalLoop=1;jettySize=auto;html=1;exitX=0.5;exitY=1;exitDx=0;exitDy=0;exitPerimeter=0;" edge="1" parent="1" source="3ulj8nUWsZ0XGV1Wzu6U-18" target="3ulj8nUWsZ0XGV1Wzu6U-16">
          <mxGeometry relative="1" as="geometry" />
        </mxCell>
        <mxCell id="3ulj8nUWsZ0XGV1Wzu6U-18" value="" style="sketch=0;points=[[0,0,0],[0.25,0,0],[0.5,0,0],[0.75,0,0],[1,0,0],[0,1,0],[0.25,1,0],[0.5,1,0],[0.75,1,0],[1,1,0],[0,0.25,0],[0,0.5,0],[0,0.75,0],[1,0.25,0],[1,0.5,0],[1,0.75,0]];outlineConnect=0;fontColor=#232F3E;fillColor=#E7157B;strokeColor=#ffffff;dashed=0;verticalLabelPosition=bottom;verticalAlign=top;align=center;html=1;fontSize=12;fontStyle=0;aspect=fixed;shape=mxgraph.aws4.resourceIcon;resIcon=mxgraph.aws4.sqs;" vertex="1" parent="1">
          <mxGeometry x="341" y="670" width="78" height="78" as="geometry" />
        </mxCell>
        <mxCell id="3ulj8nUWsZ0XGV1Wzu6U-32" style="edgeStyle=orthogonalEdgeStyle;rounded=0;orthogonalLoop=1;jettySize=auto;html=1;exitX=0.5;exitY=0;exitDx=0;exitDy=0;entryX=0;entryY=0.5;entryDx=0;entryDy=0;" edge="1" parent="1" source="3ulj8nUWsZ0XGV1Wzu6U-20" target="3ulj8nUWsZ0XGV1Wzu6U-16">
          <mxGeometry relative="1" as="geometry" />
        </mxCell>
        <mxCell id="3ulj8nUWsZ0XGV1Wzu6U-33" style="edgeStyle=orthogonalEdgeStyle;rounded=0;orthogonalLoop=1;jettySize=auto;html=1;exitX=0.5;exitY=1;exitDx=0;exitDy=0;entryX=0.5;entryY=1;entryDx=0;entryDy=0;" edge="1" parent="1" source="3ulj8nUWsZ0XGV1Wzu6U-20" target="3ulj8nUWsZ0XGV1Wzu6U-21">
          <mxGeometry relative="1" as="geometry" />
        </mxCell>
        <mxCell id="3ulj8nUWsZ0XGV1Wzu6U-20" value="" style="shape=datastore;whiteSpace=wrap;html=1;" vertex="1" parent="1">
          <mxGeometry x="290" y="960" width="60" height="60" as="geometry" />
        </mxCell>
        <mxCell id="3ulj8nUWsZ0XGV1Wzu6U-34" style="edgeStyle=orthogonalEdgeStyle;rounded=0;orthogonalLoop=1;jettySize=auto;html=1;exitX=1;exitY=0.5;exitDx=0;exitDy=0;entryX=1;entryY=0.5;entryDx=0;entryDy=0;" edge="1" parent="1" source="3ulj8nUWsZ0XGV1Wzu6U-21" target="3ulj8nUWsZ0XGV1Wzu6U-16">
          <mxGeometry relative="1" as="geometry" />
        </mxCell>
        <mxCell id="3ulj8nUWsZ0XGV1Wzu6U-21" value="" style="shape=datastore;whiteSpace=wrap;html=1;" vertex="1" parent="1">
          <mxGeometry x="410" y="960" width="60" height="60" as="geometry" />
        </mxCell>
        <mxCell id="3ulj8nUWsZ0XGV1Wzu6U-24" value="" style="verticalLabelPosition=bottom;verticalAlign=top;html=1;shape=mxgraph.basic.x" vertex="1" parent="1">
          <mxGeometry x="110" y="455" width="60" height="50" as="geometry" />
        </mxCell>
        <mxCell id="3ulj8nUWsZ0XGV1Wzu6U-25" style="edgeStyle=orthogonalEdgeStyle;rounded=0;orthogonalLoop=1;jettySize=auto;html=1;exitX=0.5;exitY=1;exitDx=0;exitDy=0;entryX=1;entryY=0.3;entryDx=0;entryDy=0;" edge="1" parent="1" source="3ulj8nUWsZ0XGV1Wzu6U-6" target="3ulj8nUWsZ0XGV1Wzu6U-16">
          <mxGeometry relative="1" as="geometry" />
        </mxCell>
        <mxCell id="3ulj8nUWsZ0XGV1Wzu6U-26" value="" style="sketch=0;points=[[0,0,0],[0.25,0,0],[0.5,0,0],[0.75,0,0],[1,0,0],[0,1,0],[0.25,1,0],[0.5,1,0],[0.75,1,0],[1,1,0],[0,0.25,0],[0,0.5,0],[0,0.75,0],[1,0.25,0],[1,0.5,0],[1,0.75,0]];points=[[0,0,0],[0.25,0,0],[0.5,0,0],[0.75,0,0],[1,0,0],[0,1,0],[0.25,1,0],[0.5,1,0],[0.75,1,0],[1,1,0],[0,0.25,0],[0,0.5,0],[0,0.75,0],[1,0.25,0],[1,0.5,0],[1,0.75,0]];outlineConnect=0;fontColor=#232F3E;fillColor=#E7157B;strokeColor=#ffffff;dashed=0;verticalLabelPosition=bottom;verticalAlign=top;align=center;html=1;fontSize=12;fontStyle=0;aspect=fixed;shape=mxgraph.aws4.resourceIcon;resIcon=mxgraph.aws4.backint_agent;" vertex="1" parent="1">
          <mxGeometry x="361" y="-78" width="78" height="78" as="geometry" />
        </mxCell>
        <mxCell id="3ulj8nUWsZ0XGV1Wzu6U-27" style="edgeStyle=orthogonalEdgeStyle;rounded=0;orthogonalLoop=1;jettySize=auto;html=1;exitX=0.5;exitY=1;exitDx=0;exitDy=0;exitPerimeter=0;entryX=0;entryY=0.5;entryDx=0;entryDy=0;entryPerimeter=0;" edge="1" parent="1" source="3ulj8nUWsZ0XGV1Wzu6U-1" target="3ulj8nUWsZ0XGV1Wzu6U-26">
          <mxGeometry relative="1" as="geometry" />
        </mxCell>
        <mxCell id="3ulj8nUWsZ0XGV1Wzu6U-29" style="edgeStyle=orthogonalEdgeStyle;rounded=0;orthogonalLoop=1;jettySize=auto;html=1;exitX=0.5;exitY=1;exitDx=0;exitDy=0;entryX=0.5;entryY=0;entryDx=0;entryDy=0;entryPerimeter=0;" edge="1" parent="1" source="3ulj8nUWsZ0XGV1Wzu6U-5" target="3ulj8nUWsZ0XGV1Wzu6U-18">
          <mxGeometry relative="1" as="geometry" />
        </mxCell>
        <mxCell id="3ulj8nUWsZ0XGV1Wzu6U-30" style="edgeStyle=orthogonalEdgeStyle;rounded=0;orthogonalLoop=1;jettySize=auto;html=1;exitX=0;exitY=0.5;exitDx=0;exitDy=0;entryX=0.75;entryY=0;entryDx=0;entryDy=0;entryPerimeter=0;" edge="1" parent="1" source="3ulj8nUWsZ0XGV1Wzu6U-6" target="3ulj8nUWsZ0XGV1Wzu6U-18">
          <mxGeometry relative="1" as="geometry" />
        </mxCell>
        <mxCell id="3ulj8nUWsZ0XGV1Wzu6U-31" style="edgeStyle=orthogonalEdgeStyle;rounded=0;orthogonalLoop=1;jettySize=auto;html=1;exitX=0.5;exitY=1;exitDx=0;exitDy=0;exitPerimeter=0;entryX=0.5;entryY=0;entryDx=0;entryDy=0;entryPerimeter=0;" edge="1" parent="1" source="3ulj8nUWsZ0XGV1Wzu6U-8" target="3ulj8nUWsZ0XGV1Wzu6U-12">
          <mxGeometry relative="1" as="geometry" />
        </mxCell>
      </root>
    </mxGraphModel>
  </diagram>
</mxfile>
